<?xml version="1.0" encoding="utf-8"?>
<!-- Generator: Adobe Illustrator 26.0.3, SVG Export Plug-In . SVG Version: 6.00 Build 0)  -->
<svg version="1.1" id="Layer_1" xmlns="http://www.w3.org/2000/svg" xmlns:xlink="http://www.w3.org/1999/xlink" x="0px" y="0px"
	 viewBox="0 0 75.8 172.6" style="enable-background:new 0 0 75.8 172.6;" xml:space="preserve">
<style type="text/css">
	.st0{opacity:0.65;fill:url(#SVGID_1_);}
	.st1{fill:url(#SVGID_00000020384824306150667540000011723301808337078657_);}
	.st2{fill:url(#SVGID_00000009577961242886638460000001683032128961676678_);}
	.st3{filter:url(#Adobe_OpacityMaskFilter);}
	
		.st4{opacity:0.2;mask:url(#SVGID_00000075843532894661475860000014235192481676509062_);fill:url(#SVGID_00000112617482425227180060000009773014420665233812_);}
	.st5{fill:url(#SVGID_00000093893608835100076310000005760371731831736459_);}
	.st6{fill:url(#SVGID_00000140726011729319752120000003353706414921023894_);}
	.st7{fill:url(#SVGID_00000091701576073270201660000009258747929501638803_);}
	.st8{fill:url(#SVGID_00000181787625163701868250000001477186562943496091_);}
	.st9{fill:url(#SVGID_00000015317916222352420760000005585484166136906417_);}
	.st10{fill:url(#SVGID_00000039107623533648964960000017581796774101422770_);}
	.st11{fill:url(#SVGID_00000040575945594609591380000008251985089953623958_);}
	.st12{fill:url(#SVGID_00000067210371654697664950000004277781176811596950_);}
	.st13{fill:url(#SVGID_00000045611086657426135620000010972586751799661195_);}
	.st14{fill:url(#SVGID_00000121274336590397106170000017569170240911022775_);}
	.st15{fill:url(#SVGID_00000175285587379808597760000005435817798515422895_);}
	.st16{fill:url(#SVGID_00000072966414083388275970000009990197047627965868_);}
	.st17{fill:url(#SVGID_00000100380383229428410740000004526750203004065930_);}
	.st18{fill:url(#SVGID_00000086654502157908627050000007322627160923579792_);}
	.st19{fill:url(#SVGID_00000095328732360311337100000001279435732130123186_);}
	.st20{fill:url(#SVGID_00000008151143560992503150000008028622919833846154_);}
	.st21{fill:url(#SVGID_00000085930528179042757760000016933280651366349952_);}
	.st22{fill:url(#SVGID_00000147908923316062547870000003395516583687516339_);}
	.st23{fill:url(#SVGID_00000113329375100788498710000015271117506190180004_);}
	.st24{fill:url(#SVGID_00000092414194546234244150000002057696116983722423_);}
	.st25{fill:url(#SVGID_00000047743169028734360760000008973145529960416902_);}
	.st26{fill:url(#SVGID_00000031905848047350248750000010918010090925000617_);}
	.st27{fill:url(#SVGID_00000023242607611867006500000000210697396408900501_);}
	.st28{opacity:0.2;fill:url(#SVGID_00000181060028614504086100000012702037020342327940_);}
	.st29{opacity:0.38;fill:url(#SVGID_00000094577824358449334040000005316329356391008950_);}
	.st30{opacity:0.2;fill:url(#SVGID_00000035499536108230550420000004791923480987458980_);}
	.st31{opacity:0.15;}
	.st32{filter:url(#Adobe_OpacityMaskFilter_00000009585608105235561760000004756959861828852379_);}
	
		.st33{opacity:0.31;mask:url(#SVGID_00000075884343852109393650000009646851676533424553_);fill:url(#SVGID_00000066476428898070249870000011521216534054114457_);}
	.st34{fill:url(#SVGID_00000134249718516842524660000013161782695858420657_);}
	.st35{fill:#FFFFFF;}
</style>
<g>
	<g>
		<linearGradient id="SVGID_1_" gradientUnits="userSpaceOnUse" x1="6.3045" y1="36.4231" x2="71.7623" y2="-19.9055">
			<stop  offset="0" style="stop-color:#FFFFFF;stop-opacity:0"/>
			<stop  offset="1" style="stop-color:#FFFFFF"/>
		</linearGradient>
		<path class="st0" d="M42.9,12.7c-3.7,0.8-7,1.9-10.1,3.4h0c-3.3,1.5-6.2,3.4-8.9,5.4c-1.3,1-2.5,2-3.6,3
			c-5.7,5.2-9.8,11.2-12.6,16.4c-0.3,0.5-0.6,1-0.8,1.6c0-7.5,2.3-13.8,6-18.7c0.5-0.7,1.1-1.4,1.7-2c0.2-0.2,0.4-0.4,0.6-0.6
			c0.8-0.8,1.7-1.6,2.6-2.3c0.4-0.3,0.8-0.6,1.2-0.9c0,0,0.1-0.1,0.2-0.1c0.4-0.3,0.7-0.5,1.1-0.7c0.1-0.1,0.2-0.2,0.4-0.2
			c0.4-0.3,0.8-0.5,1.3-0.7c0.4-0.2,0.9-0.5,1.3-0.7c0.2-0.1,0.5-0.2,0.7-0.3c0.7-0.3,1.4-0.6,2.1-0.8l0.9-0.3
			c0.4-0.1,0.8-0.2,1.2-0.4c1.1-0.3,2.2-0.6,3.3-0.7c0.3-0.1,0.6-0.1,0.9-0.1c1-0.2,2.1-0.2,3.1-0.3c0.6,0,1.1,0,1.7,0h0.4
			C39.4,12.4,41.1,12.5,42.9,12.7z"/>
		
			<linearGradient id="SVGID_00000031199664332604182750000002141126442649253284_" gradientUnits="userSpaceOnUse" x1="37.6552" y1="56.1352" x2="37.6552" y2="190.4931">
			<stop  offset="0" style="stop-color:#F08D21"/>
			<stop  offset="0.3951" style="stop-color:#F08B21"/>
			<stop  offset="0.603" style="stop-color:#F08621"/>
			<stop  offset="0.7673" style="stop-color:#F07D22"/>
			<stop  offset="0.9079" style="stop-color:#F17022"/>
			<stop  offset="1" style="stop-color:#F26222"/>
		</linearGradient>
		<path style="fill:url(#SVGID_00000031199664332604182750000002141126442649253284_);" d="M56.8,105.9c0.1-0.1,0.2-0.2,0.3-0.2
			c0.1-0.1,0.2-0.1,0.2-0.2c6-4.5,9.7-11.4,9.8-20.1c0-0.2,0-0.4,0-0.5c0-1.1,0-2.2-0.2-3.2c0-0.3-0.1-0.7-0.1-1
			c0-0.2,0-0.4-0.1-0.5c-0.1-0.7-0.3-1.4-0.5-2.1c-0.5-1.8-1.2-3.5-2.3-5.1c-0.1-0.1-0.2-0.2-0.3-0.4c-0.3-0.5-0.7-0.9-1.1-1.4
			c-0.2-0.2-0.3-0.4-0.5-0.6c-0.1-0.1-0.2-0.3-0.4-0.4c-0.1-0.1-0.1-0.1-0.2-0.2c-0.1-0.1-0.3-0.3-0.4-0.4c-0.2-0.2-0.5-0.5-0.8-0.7
			c-0.2-0.2-0.4-0.4-0.7-0.5c-0.2-0.2-0.5-0.4-0.7-0.5c-0.5-0.3-1-0.7-1.5-1c-0.3-0.2-0.7-0.4-1-0.6c-0.5-0.3-1-0.6-1.5-0.8
			c-0.1,0-0.2-0.1-0.3-0.1c8.2-3.8,11.5-11.7,12.4-18.5c0.2-1.3,0.2-2.6,0.2-3.8c0-0.9,0-1.7-0.1-2.5c-0.2-2.3-0.6-4.6-1.3-6.7
			c-0.9-2.8-2.4-5.4-4.4-7.9c-0.2-0.2-0.3-0.4-0.5-0.6l6.7-8.5L56.9,8.2l-6,7.5c-2.5-1.7-5.3-2.6-8.1-3c-0.5-0.1-1.1-0.2-1.6-0.2
			c-1.2-0.1-2.4-0.2-3.6-0.2h-0.4c-0.6,0-1.1,0-1.7,0c-1.1,0-2.1,0.1-3.1,0.3c-0.3,0-0.6,0.1-0.9,0.1c-1.1,0.2-2.3,0.4-3.3,0.7
			c-0.4,0.1-0.8,0.2-1.2,0.4L26,14.3c-0.7,0.2-1.4,0.5-2.1,0.8c-0.2,0.1-0.5,0.2-0.7,0.3c-0.5,0.2-0.9,0.4-1.3,0.7
			c-0.4,0.2-0.9,0.5-1.3,0.7c-0.1,0.1-0.2,0.1-0.4,0.2c-0.4,0.2-0.8,0.5-1.1,0.7c-0.1,0-0.1,0.1-0.2,0.1c-0.4,0.3-0.8,0.6-1.2,0.9
			c-0.9,0.7-1.8,1.5-2.6,2.3c-0.2,0.2-0.4,0.4-0.6,0.6c-0.6,0.6-1.1,1.3-1.7,2c-3.7,4.9-6,11.2-6,18.7c0,0.7,0,1.3,0,2
			c0,0.7,0.1,1.5,0.2,2.3C8,55.8,13,63.4,20.2,68h0l0,0c2.9,1.9,6.2,3.3,9.7,4.1c0,0,0,0,0,0c2.3,0.5,4.7,0.8,7.1,0.8
			c7.4,0,15.3,3.7,15.3,12c0,0.1,0,0.1,0,0.2c0,1.5-0.2,2.8-0.7,4.1c-0.1,0.4-0.3,0.8-0.5,1.2c-0.3,0.7-0.7,1.3-1.1,1.9
			c-0.1,0.1-0.2,0.3-0.3,0.4c-0.6,0.7-1.3,1.4-2,2c-0.2,0.2-0.5,0.4-0.8,0.6c-0.4,0.2-0.7,0.5-1.1,0.6c-0.3,0.2-0.6,0.3-0.9,0.4
			c-0.1,0.1-0.2,0.1-0.3,0.1c-0.3,0.2-0.6,0.3-1,0.4c-0.1,0-0.2,0.1-0.3,0.1c-0.3,0.1-0.7,0.2-1,0.3c-0.1,0-0.2,0.1-0.4,0.1
			c-0.4,0.1-0.8,0.2-1.2,0.2c0,0-0.1,0-0.1,0c-0.5,0.1-0.9,0.2-1.4,0.2c-0.5,0-1,0.1-1.5,0.1c0,0,0,0,0,0c-0.1,0-0.3,0-0.4,0
			c-8.5,0-15.7-5.1-15.7-12.9H6.9c0,9.3,4.3,16.7,11.2,21.3c0.3,0.2,0.5,0.4,0.8,0.5c-2.6,1.8-4.9,4.1-6.7,6.6
			c-3.7,5.2-5.7,11.7-5.7,19c0,1.2,0,2.3,0.1,3.4c0,0.6,0.1,1.1,0.2,1.6c0,0,0,0.1,0,0.2c0.1,1,0.3,2.1,0.5,3c0.2,1,0.5,2.1,0.8,3.1
			c0.3,1,0.6,1.9,1,2.8c0,0,0,0,0,0.1c0.2,0.5,0.4,0.9,0.6,1.3c0.2,0.5,0.4,0.9,0.7,1.3c0.2,0.4,0.5,0.9,0.7,1.3
			c5.3,8.7,15.1,13.9,28.2,13.9c9,0,19.2-3.1,25.6-9.6c0.1,0,0.1-0.1,0.2-0.2l-9.1-9l-0.4-0.4c-2.1,2.2-5.8,3.9-9.6,4.8
			c-0.3,0.1-0.7,0.2-1,0.2c-0.3,0.1-0.6,0.1-0.9,0.2c-0.3,0.1-0.6,0.1-0.9,0.1c-0.4,0.1-0.9,0.1-1.3,0.2c-0.3,0-0.7,0.1-1,0.1
			c-0.3,0-0.7,0-1,0h-0.1c-0.1,0-0.2,0-0.3,0c-10.4,0-16.9-5.3-17.9-12.8h46.8C70,122.4,65.5,111.6,56.8,105.9z M52.3,47.1
			c0,0,0,0.1,0,0.2c-0.1,0.5-0.2,1-0.4,1.4c-0.1,0.3-0.2,0.5-0.3,0.8c-0.1,0.2-0.2,0.5-0.3,0.7c-0.1,0.2-0.2,0.5-0.3,0.7
			c-0.1,0.2-0.2,0.5-0.4,0.7c-0.1,0.2-0.2,0.4-0.4,0.7c-0.1,0.2-0.3,0.4-0.4,0.6c-0.1,0.2-0.3,0.4-0.4,0.6c-0.7,1-1.6,1.9-2.5,2.6
			c-0.2,0.2-0.4,0.3-0.6,0.4c-0.6,0.4-1.2,0.8-1.8,1.1c-1.5,0.8-3.1,1.3-4.8,1.5c-0.2,0-0.5,0.1-0.7,0.1c-0.2,0-0.5,0.1-0.8,0.1
			c0,0,0,0,0,0c-0.3,0-0.6,0-0.9,0c-8.6,0-15.7-6.2-15.7-16.6c0-10.5,7.1-16.9,15.7-16.9h0.4c0.1,0,0.3,0,0.4,0c0.3,0,0.5,0,0.8,0.1
			c0.2,0,0.5,0.1,0.8,0.1c0.2,0,0.4,0.1,0.5,0.1c0.2,0,0.4,0.1,0.5,0.1c0.2,0,0.5,0.1,0.7,0.2c0.2,0,0.4,0.1,0.7,0.2
			c0.3,0.1,0.6,0.2,0.9,0.3c0.2,0.1,0.4,0.1,0.5,0.2c0.2,0.1,0.5,0.2,0.7,0.3c0.4,0.2,0.9,0.5,1.3,0.7c0.2,0.1,0.4,0.3,0.6,0.4
			c0.3,0.2,0.7,0.5,1,0.8c0.2,0.2,0.4,0.3,0.5,0.5c0.6,0.5,1.1,1.1,1.6,1.7c0.2,0.2,0.3,0.4,0.5,0.6c1.2,1.8,2.2,3.8,2.7,6.2
			c0,0.2,0.1,0.5,0.1,0.7c0,0.1,0,0.2,0,0.3c0.1,0.4,0.1,0.8,0.2,1.2c0.1,0.7,0.1,1.4,0.1,2.1c0,1.2-0.1,2.4-0.3,3.5
			C52.4,46.5,52.4,46.8,52.3,47.1z M22,125.8c2.2-7.8,8.7-11.7,16.8-11.7c0.1,0,0.3,0,0.4,0c8.3,0.1,14.2,4,15.2,11.6H22z"/>
		
			<linearGradient id="SVGID_00000065775341428760652240000002877322448959305090_" gradientUnits="userSpaceOnUse" x1="71.3376" y1="107.954" x2="34.8212" y2="81.1494">
			<stop  offset="0" style="stop-color:#F08D21"/>
			<stop  offset="0.7166" style="stop-color:#F26222;stop-opacity:0"/>
		</linearGradient>
		<path style="fill:url(#SVGID_00000065775341428760652240000002877322448959305090_);" d="M56.8,105.9c0.1-0.1,0.2-0.2,0.3-0.2
			c0.1-0.1,0.2-0.1,0.2-0.2c6-4.5,9.7-11.4,9.8-20.1c0-0.2,0-0.4,0-0.5c0-1.1,0-2.2-0.2-3.2c0-0.3-0.1-0.7-0.1-1
			c0-0.2,0-0.4-0.1-0.5c-0.1-0.7-0.3-1.4-0.5-2.1c-0.5-1.8-1.2-3.5-2.3-5.1c-0.1-0.1-0.2-0.2-0.3-0.4c-0.3-0.5-0.7-0.9-1.1-1.4
			c-0.2-0.2-0.3-0.4-0.5-0.6c-0.1-0.1-0.2-0.3-0.4-0.4c-0.1-0.1-0.1-0.1-0.2-0.2c-0.1-0.1-0.3-0.3-0.4-0.4c-0.2-0.2-0.5-0.5-0.8-0.7
			c-0.2-0.2-0.4-0.4-0.7-0.5c-0.2-0.2-0.5-0.4-0.7-0.5c-0.5-0.3-1-0.7-1.5-1c-0.3-0.2-0.7-0.4-1-0.6c-0.5-0.3-1-0.6-1.5-0.8
			c-0.1,0-0.2-0.1-0.3-0.1c8.2-3.8,11.5-11.7,12.4-18.5c0.2-1.3,0.2-2.6,0.2-3.8c0-0.9,0-1.7-0.1-2.5c-0.2-2.3-0.6-4.6-1.3-6.7
			c-0.9-2.8-2.4-5.4-4.4-7.9c-0.2-0.2-0.3-0.4-0.5-0.6l6.7-8.5L56.9,8.2l-6,7.5c-2.5-1.7-5.3-2.6-8.1-3c-0.5-0.1-1.1-0.2-1.6-0.2
			c-1.2-0.1-2.4-0.2-3.6-0.2h-0.4c-0.6,0-1.1,0-1.7,0c-1.1,0-2.1,0.1-3.1,0.3c-0.3,0-0.6,0.1-0.9,0.1c-1.1,0.2-2.3,0.4-3.3,0.7
			c-0.4,0.1-0.8,0.2-1.2,0.4L26,14.3c-0.7,0.2-1.4,0.5-2.1,0.8c-0.2,0.1-0.5,0.2-0.7,0.3c-0.5,0.2-0.9,0.4-1.3,0.7
			c-0.4,0.2-0.9,0.5-1.3,0.7c-0.1,0.1-0.2,0.1-0.4,0.2c-0.4,0.2-0.8,0.5-1.1,0.7c-0.1,0-0.1,0.1-0.2,0.1c-0.4,0.3-0.8,0.6-1.2,0.9
			c-0.9,0.7-1.8,1.5-2.6,2.3c-0.2,0.2-0.4,0.4-0.6,0.6c-0.6,0.6-1.1,1.3-1.7,2c-3.7,4.9-6,11.2-6,18.7c0,0.7,0,1.3,0,2
			c0,0.7,0.1,1.5,0.2,2.3C8,55.8,13,63.4,20.2,68h0l0,0c2.9,1.9,6.2,3.3,9.7,4.1c0,0,0,0,0,0c2.3,0.5,4.7,0.8,7.1,0.8
			c7.4,0,15.3,3.7,15.3,12c0,0.1,0,0.1,0,0.2c0,1.5-0.2,2.8-0.7,4.1c-0.1,0.4-0.3,0.8-0.5,1.2c-0.3,0.7-0.7,1.3-1.1,1.9
			c-0.1,0.1-0.2,0.3-0.3,0.4c-0.6,0.7-1.3,1.4-2,2c-0.2,0.2-0.5,0.4-0.8,0.6c-0.4,0.2-0.7,0.5-1.1,0.6c-0.3,0.2-0.6,0.3-0.9,0.4
			c-0.1,0.1-0.2,0.1-0.3,0.1c-0.3,0.2-0.6,0.3-1,0.4c-0.1,0-0.2,0.1-0.3,0.1c-0.3,0.1-0.7,0.2-1,0.3c-0.1,0-0.2,0.1-0.4,0.1
			c-0.4,0.1-0.8,0.2-1.2,0.2c0,0-0.1,0-0.1,0c-0.5,0.1-0.9,0.2-1.4,0.2c-0.5,0-1,0.1-1.5,0.1c0,0,0,0,0,0c-0.1,0-0.3,0-0.4,0
			c-8.5,0-15.7-5.1-15.7-12.9H6.9c0,9.3,4.3,16.7,11.2,21.3c0.3,0.2,0.5,0.4,0.8,0.5c-2.6,1.8-4.9,4.1-6.7,6.6
			c-3.7,5.2-5.7,11.7-5.7,19c0,1.2,0,2.3,0.1,3.4c0,0.6,0.1,1.1,0.2,1.6c0,0,0,0.1,0,0.2c0.1,1,0.3,2.1,0.5,3c0.2,1,0.5,2.1,0.8,3.1
			c0.3,1,0.6,1.9,1,2.8c0,0,0,0,0,0.1c0.2,0.5,0.4,0.9,0.6,1.3c0.2,0.5,0.4,0.9,0.7,1.3c0.2,0.4,0.5,0.9,0.7,1.3
			c5.3,8.7,15.1,13.9,28.2,13.9c9,0,19.2-3.1,25.6-9.6c0.1,0,0.1-0.1,0.2-0.2l-9.1-9l-0.4-0.4c-2.1,2.2-5.8,3.9-9.6,4.8
			c-0.3,0.1-0.7,0.2-1,0.2c-0.3,0.1-0.6,0.1-0.9,0.2c-0.3,0.1-0.6,0.1-0.9,0.1c-0.4,0.1-0.9,0.1-1.3,0.2c-0.3,0-0.7,0.1-1,0.1
			c-0.3,0-0.7,0-1,0h-0.1c-0.1,0-0.2,0-0.3,0c-10.4,0-16.9-5.3-17.9-12.8h46.8C70,122.4,65.5,111.6,56.8,105.9z M52.3,47.1
			c0,0,0,0.1,0,0.2c-0.1,0.5-0.2,1-0.4,1.4c-0.1,0.3-0.2,0.5-0.3,0.8c-0.1,0.2-0.2,0.5-0.3,0.7c-0.1,0.2-0.2,0.5-0.3,0.7
			c-0.1,0.2-0.2,0.5-0.4,0.7c-0.1,0.2-0.2,0.4-0.4,0.7c-0.1,0.2-0.3,0.4-0.4,0.6c-0.1,0.2-0.3,0.4-0.4,0.6c-0.7,1-1.6,1.9-2.5,2.6
			c-0.2,0.2-0.4,0.3-0.6,0.4c-0.6,0.4-1.2,0.8-1.8,1.1c-1.5,0.8-3.1,1.3-4.8,1.5c-0.2,0-0.5,0.1-0.7,0.1c-0.2,0-0.5,0.1-0.8,0.1
			c0,0,0,0,0,0c-0.3,0-0.6,0-0.9,0c-8.6,0-15.7-6.2-15.7-16.6c0-10.5,7.1-16.9,15.7-16.9h0.4c0.1,0,0.3,0,0.4,0c0.3,0,0.5,0,0.8,0.1
			c0.2,0,0.5,0.1,0.8,0.1c0.2,0,0.4,0.1,0.5,0.1c0.2,0,0.4,0.1,0.5,0.1c0.2,0,0.5,0.1,0.7,0.2c0.2,0,0.4,0.1,0.7,0.2
			c0.3,0.1,0.6,0.2,0.9,0.3c0.2,0.1,0.4,0.1,0.5,0.2c0.2,0.1,0.5,0.2,0.7,0.3c0.4,0.2,0.9,0.5,1.3,0.7c0.2,0.1,0.4,0.3,0.6,0.4
			c0.3,0.2,0.7,0.5,1,0.8c0.2,0.2,0.4,0.3,0.5,0.5c0.6,0.5,1.1,1.1,1.6,1.7c0.2,0.2,0.3,0.4,0.5,0.6c1.2,1.8,2.2,3.8,2.7,6.2
			c0,0.2,0.1,0.5,0.1,0.7c0,0.1,0,0.2,0,0.3c0.1,0.4,0.1,0.8,0.2,1.2c0.1,0.7,0.1,1.4,0.1,2.1c0,1.2-0.1,2.4-0.3,3.5
			C52.4,46.5,52.4,46.8,52.3,47.1z M22,125.8c2.2-7.8,8.7-11.7,16.8-11.7c0.1,0,0.3,0,0.4,0c8.3,0.1,14.2,4,15.2,11.6H22z"/>
		<defs>
			<filter id="Adobe_OpacityMaskFilter" filterUnits="userSpaceOnUse" x="6.5" y="8.2" width="62.3" height="156.1">
				<feFlood  style="flood-color:white;flood-opacity:1" result="back"/>
				<feBlend  in="SourceGraphic" in2="back" mode="normal"/>
			</filter>
		</defs>
		
			<mask maskUnits="userSpaceOnUse" x="6.5" y="8.2" width="62.3" height="156.1" id="SVGID_00000173161059333377880600000010259997811201681565_">
			<g class="st3">
			</g>
		</mask>
		
			<radialGradient id="SVGID_00000168098090137765164060000014561637735310846359_" cx="5.5021" cy="103.6551" r="76.4383" gradientUnits="userSpaceOnUse">
			<stop  offset="0" style="stop-color:#151011;stop-opacity:0.95"/>
			<stop  offset="0.2023" style="stop-color:#151011;stop-opacity:0.6512"/>
			<stop  offset="0.4256" style="stop-color:#151011;stop-opacity:0"/>
		</radialGradient>
		
			<path style="opacity:0.2;mask:url(#SVGID_00000173161059333377880600000010259997811201681565_);fill:url(#SVGID_00000168098090137765164060000014561637735310846359_);" d="
			M56.8,105.9c0.1-0.1,0.2-0.2,0.3-0.2c0.1-0.1,0.2-0.1,0.2-0.2c6-4.5,9.7-11.4,9.8-20.1c0-0.2,0-0.4,0-0.5c0-1.1,0-2.2-0.2-3.2
			c0-0.3-0.1-0.7-0.1-1c0-0.2,0-0.4-0.1-0.5c-0.1-0.7-0.3-1.4-0.5-2.1c-0.5-1.8-1.2-3.5-2.3-5.1c-0.1-0.1-0.2-0.2-0.3-0.4
			c-0.3-0.5-0.7-0.9-1.1-1.4c-0.2-0.2-0.3-0.4-0.5-0.6c-0.1-0.1-0.2-0.3-0.4-0.4c-0.1-0.1-0.1-0.1-0.2-0.2c-0.1-0.1-0.3-0.3-0.4-0.4
			c-0.2-0.2-0.5-0.5-0.8-0.7c-0.2-0.2-0.4-0.4-0.7-0.5c-0.2-0.2-0.5-0.4-0.7-0.5c-0.5-0.3-1-0.7-1.5-1c-0.3-0.2-0.7-0.4-1-0.6
			c-0.5-0.3-1-0.6-1.5-0.8c-0.1,0-0.2-0.1-0.3-0.1c8.2-3.8,11.5-11.7,12.4-18.5c0.2-1.3,0.2-2.6,0.2-3.8c0-0.9,0-1.7-0.1-2.5
			c-0.2-2.3-0.6-4.6-1.3-6.7c-0.9-2.8-2.4-5.4-4.4-7.9c-0.2-0.2-0.3-0.4-0.5-0.6l6.7-8.5L56.9,8.2l-6,7.5c-2.5-1.7-5.3-2.6-8.1-3
			c-0.5-0.1-1.1-0.2-1.6-0.2c-1.2-0.1-2.4-0.2-3.6-0.2h-0.4c-0.6,0-1.1,0-1.7,0c-1.1,0-2.1,0.1-3.1,0.3c-0.3,0-0.6,0.1-0.9,0.1
			c-1.1,0.2-2.3,0.4-3.3,0.7c-0.4,0.1-0.8,0.2-1.2,0.4L26,14.3c-0.7,0.2-1.4,0.5-2.1,0.8c-0.2,0.1-0.5,0.2-0.7,0.3
			c-0.5,0.2-0.9,0.4-1.3,0.7c-0.4,0.2-0.9,0.5-1.3,0.7c-0.1,0.1-0.2,0.1-0.4,0.2c-0.4,0.2-0.8,0.5-1.1,0.7c-0.1,0-0.1,0.1-0.2,0.1
			c-0.4,0.3-0.8,0.6-1.2,0.9c-0.9,0.7-1.8,1.5-2.6,2.3c-0.2,0.2-0.4,0.4-0.6,0.6c-0.6,0.6-1.1,1.3-1.7,2c-3.7,4.9-6,11.2-6,18.7
			c0,0.7,0,1.3,0,2c0,0.7,0.1,1.5,0.2,2.3C8,55.8,13,63.4,20.2,68h0l0,0c2.9,1.9,6.2,3.3,9.7,4.1c0,0,0,0,0,0
			c2.3,0.5,4.7,0.8,7.1,0.8c7.4,0,15.3,3.7,15.3,12c0,0.1,0,0.1,0,0.2c0,1.5-0.2,2.8-0.7,4.1c-0.1,0.4-0.3,0.8-0.5,1.2
			c-0.3,0.7-0.7,1.3-1.1,1.9c-0.1,0.1-0.2,0.3-0.3,0.4c-0.6,0.7-1.3,1.4-2,2c-0.2,0.2-0.5,0.4-0.8,0.6c-0.4,0.2-0.7,0.5-1.1,0.6
			c-0.3,0.2-0.6,0.3-0.9,0.4c-0.1,0.1-0.2,0.1-0.3,0.1c-0.3,0.2-0.6,0.3-1,0.4c-0.1,0-0.2,0.1-0.3,0.1c-0.3,0.1-0.7,0.2-1,0.3
			c-0.1,0-0.2,0.1-0.4,0.1c-0.4,0.1-0.8,0.2-1.2,0.2c0,0-0.1,0-0.1,0c-0.5,0.1-0.9,0.2-1.4,0.2c-0.5,0-1,0.1-1.5,0.1c0,0,0,0,0,0
			c-0.1,0-0.3,0-0.4,0c-8.5,0-15.7-5.1-15.7-12.9H6.9c0,9.3,4.3,16.7,11.2,21.3c0.3,0.2,0.5,0.4,0.8,0.5c-2.6,1.8-4.9,4.1-6.7,6.6
			c-3.7,5.2-5.7,11.7-5.7,19c0,1.2,0,2.3,0.1,3.4c0,0.6,0.1,1.1,0.2,1.6c0,0,0,0.1,0,0.2c0.1,1,0.3,2.1,0.5,3c0.2,1,0.5,2.1,0.8,3.1
			c0.3,1,0.6,1.9,1,2.8c0,0,0,0,0,0.1c0.2,0.5,0.4,0.9,0.6,1.3c0.2,0.5,0.4,0.9,0.7,1.3c0.2,0.4,0.5,0.9,0.7,1.3
			c5.3,8.7,15.1,13.9,28.2,13.9c9,0,19.2-3.1,25.6-9.6c0.1,0,0.1-0.1,0.2-0.2l-9.1-9l-0.4-0.4c-2.1,2.2-5.8,3.9-9.6,4.8
			c-0.3,0.1-0.7,0.2-1,0.2c-0.3,0.1-0.6,0.1-0.9,0.2c-0.3,0.1-0.6,0.1-0.9,0.1c-0.4,0.1-0.9,0.1-1.3,0.2c-0.3,0-0.7,0.1-1,0.1
			c-0.3,0-0.7,0-1,0h-0.1c-0.1,0-0.2,0-0.3,0c-10.4,0-16.9-5.3-17.9-12.8h46.8C70,122.4,65.5,111.6,56.8,105.9z M52.3,47.1
			c0,0,0,0.1,0,0.2c-0.1,0.5-0.2,1-0.4,1.4c-0.1,0.3-0.2,0.5-0.3,0.8c-0.1,0.2-0.2,0.5-0.3,0.7c-0.1,0.2-0.2,0.5-0.3,0.7
			c-0.1,0.2-0.2,0.5-0.4,0.7c-0.1,0.2-0.2,0.4-0.4,0.7c-0.1,0.2-0.3,0.4-0.4,0.6c-0.1,0.2-0.3,0.4-0.4,0.6c-0.7,1-1.6,1.9-2.5,2.6
			c-0.2,0.2-0.4,0.3-0.6,0.4c-0.6,0.4-1.2,0.8-1.8,1.1c-1.5,0.8-3.1,1.3-4.8,1.5c-0.2,0-0.5,0.1-0.7,0.1c-0.2,0-0.5,0.1-0.8,0.1
			c0,0,0,0,0,0c-0.3,0-0.6,0-0.9,0c-8.6,0-15.7-6.2-15.7-16.6c0-10.5,7.1-16.9,15.7-16.9h0.4c0.1,0,0.3,0,0.4,0c0.3,0,0.5,0,0.8,0.1
			c0.2,0,0.5,0.1,0.8,0.1c0.2,0,0.4,0.1,0.5,0.1c0.2,0,0.4,0.1,0.5,0.1c0.2,0,0.5,0.1,0.7,0.2c0.2,0,0.4,0.1,0.7,0.2
			c0.3,0.1,0.6,0.2,0.9,0.3c0.2,0.1,0.4,0.1,0.5,0.2c0.2,0.1,0.5,0.2,0.7,0.3c0.4,0.2,0.9,0.5,1.3,0.7c0.2,0.1,0.4,0.3,0.6,0.4
			c0.3,0.2,0.7,0.5,1,0.8c0.2,0.2,0.4,0.3,0.5,0.5c0.6,0.5,1.1,1.1,1.6,1.7c0.2,0.2,0.3,0.4,0.5,0.6c1.2,1.8,2.2,3.8,2.7,6.2
			c0,0.2,0.1,0.5,0.1,0.7c0,0.1,0,0.2,0,0.3c0.1,0.4,0.1,0.8,0.2,1.2c0.1,0.7,0.1,1.4,0.1,2.1c0,1.2-0.1,2.4-0.3,3.5
			C52.4,46.5,52.4,46.8,52.3,47.1z M22,125.8c2.2-7.8,8.7-11.7,16.8-11.7c0.1,0,0.3,0,0.4,0c8.3,0.1,14.2,4,15.2,11.6H22z"/>
		<g>
			<g>
				
					<linearGradient id="SVGID_00000058583532198925696150000008292292362912693178_" gradientUnits="userSpaceOnUse" x1="45.0326" y1="111.6274" x2="45.5505" y2="39.1124">
					<stop  offset="0" style="stop-color:#F08D21"/>
					<stop  offset="0.7166" style="stop-color:#F26222"/>
				</linearGradient>
				<path style="fill:url(#SVGID_00000058583532198925696150000008292292362912693178_);" d="M38,25.8h-0.4
					c8.3,0.2,15.2,6.7,15.2,16.9c0,10-6.6,16.2-14.6,16.6c0,0,0,0,0,0c8.5-0.1,15.4-6.4,15.4-16.6C53.5,32.4,46.5,25.8,38,25.8z"/>
				
					<linearGradient id="SVGID_00000132802374128383239500000017218520907324536505_" gradientUnits="userSpaceOnUse" x1="48.2466" y1="111.6503" x2="48.7646" y2="39.1353">
					<stop  offset="0" style="stop-color:#F08D21"/>
					<stop  offset="0.7166" style="stop-color:#F26222"/>
				</linearGradient>
				<path style="fill:url(#SVGID_00000132802374128383239500000017218520907324536505_);" d="M39.9,150.8c0.2,0,0.3,0,0.5,0
					c5.3,0,12.1-1.9,15.6-5.2l-0.4-0.4C52.3,148.7,45.3,150.7,39.9,150.8z"/>
				
					<linearGradient id="SVGID_00000078017106413127068640000012666570422499033276_" gradientUnits="userSpaceOnUse" x1="29.6884" y1="111.5175" x2="30.2064" y2="39.0035">
					<stop  offset="0" style="stop-color:#F08D21"/>
					<stop  offset="0.7166" style="stop-color:#F26222"/>
				</linearGradient>
				<path style="fill:url(#SVGID_00000078017106413127068640000012666570422499033276_);" d="M53.2,84.9c0,8.3-6.7,12.9-15.2,12.9
					c-0.1,0-0.2,0-0.3,0c0.5,0,1,0,1.5-0.1c0.5,0,1-0.1,1.4-0.2c0,0,0.1,0,0.1,0c0.4-0.1,0.8-0.1,1.2-0.2c0.1,0,0.2-0.1,0.4-0.1
					c0.3-0.1,0.7-0.2,1-0.3c0.1,0,0.2-0.1,0.3-0.1c0.3-0.1,0.7-0.2,1-0.4c0.1,0,0.2-0.1,0.3-0.1c0.3-0.1,0.6-0.3,0.9-0.4
					c0.4-0.2,0.7-0.4,1.1-0.6c0.3-0.2,0.5-0.4,0.8-0.6c0.8-0.6,1.4-1.3,2-2c0.1-0.1,0.2-0.3,0.3-0.4c0.4-0.6,0.8-1.2,1.1-1.9
					c0.2-0.4,0.3-0.8,0.5-1.2c0.4-1.3,0.7-2.7,0.7-4.3c0-8.3-7.8-12.1-15.3-12c-2.5,0-4.8-0.3-7.2-0.8C17.9,69.3,8.3,59.5,7.1,46.7
					c-0.1-1.5-0.2-2.9-0.2-4.3c0-7.5,2.3-13.8,6-18.7c0.5-0.7,1.1-1.4,1.7-2c0.2-0.2,0.4-0.4,0.6-0.6c0.8-0.8,1.7-1.6,2.6-2.3
					c0.4-0.3,0.8-0.6,1.2-0.9c0,0,0.1-0.1,0.2-0.1c0.4-0.3,0.7-0.5,1.1-0.7c0.1-0.1,0.2-0.2,0.4-0.2c0.4-0.3,0.8-0.5,1.3-0.7
					c0.4-0.2,0.9-0.5,1.3-0.7c0.2-0.1,0.5-0.2,0.7-0.3c0.7-0.3,1.4-0.6,2.1-0.8l0.9-0.3c0.4-0.1,0.8-0.2,1.2-0.4
					c1.1-0.3,2.2-0.6,3.3-0.7c0.3-0.1,0.6-0.1,0.9-0.1c1-0.2,2.1-0.2,3.1-0.3c0.6,0,1.1,0,1.7,0h0.4c-0.5,0-0.9,0-1.3,0
					c-1.1,0-2.1,0.1-3.1,0.3c-0.3,0-0.6,0.1-0.9,0.1c-1.1,0.2-2.3,0.4-3.3,0.7c-0.4,0.1-0.8,0.2-1.2,0.4l-0.9,0.3
					c-0.9,0.3-1.9,0.7-2.8,1.1c-0.1,0-0.2,0.1-0.3,0.2c-0.3,0.2-0.7,0.3-1,0.5c-0.4,0.2-0.9,0.5-1.3,0.7c-0.1,0.1-0.2,0.1-0.4,0.2
					c-0.4,0.2-0.8,0.5-1.1,0.7c-0.1,0-0.1,0.1-0.2,0.1c-0.4,0.3-0.8,0.6-1.2,0.9c-0.9,0.7-1.8,1.5-2.6,2.3c-0.2,0.2-0.4,0.4-0.6,0.6
					c-0.5,0.5-1,1.1-1.4,1.7c-0.1,0.1-0.2,0.2-0.2,0.3c-3.5,4.6-5.7,10.3-6,17.1c0,0.5,0,1,0,1.6c0,1.4,0,2.8,0.2,4.3
					c1.2,12.5,10.3,22.1,22,25.1c2.6,0.7,5.3,1,8.1,1C45.3,72.8,53.2,76.6,53.2,84.9z"/>
				
					<linearGradient id="SVGID_00000133505375305616625290000016284590226048520372_" gradientUnits="userSpaceOnUse" x1="22.3327" y1="111.4652" x2="22.8507" y2="38.9502">
					<stop  offset="0" style="stop-color:#F08D21"/>
					<stop  offset="0.7166" style="stop-color:#F26222"/>
				</linearGradient>
				<path style="fill:url(#SVGID_00000133505375305616625290000016284590226048520372_);" d="M37.6,164.2
					c-19.1-1-30.4-13.5-30.4-31.8c0-11,4.6-20.1,12.4-25.6c-7.4-4.6-12-12.2-12-21.8H6.9c0,9.6,4.6,17.2,12,21.8
					c-7.9,5.5-12.4,14.6-12.4,25.6C6.5,151,18.1,163.5,37.6,164.2C37.7,164.2,37.6,164.2,37.6,164.2z"/>
				
					<linearGradient id="SVGID_00000062165552242568668450000004462714210435631751_" gradientUnits="userSpaceOnUse" x1="30.6733" y1="111.5248" x2="31.1913" y2="39.0098">
					<stop  offset="0" style="stop-color:#F08D21"/>
					<stop  offset="0.7166" style="stop-color:#F26222"/>
				</linearGradient>
				<path style="fill:url(#SVGID_00000062165552242568668450000004462714210435631751_);" d="M22,125.8h0.8
					c2.1-7.6,8.5-11.5,16.4-11.6c-0.1,0-0.3,0-0.4,0C30.8,114.1,24.2,118,22,125.8z"/>
				
					<linearGradient id="SVGID_00000080194198100949094280000001168821601377815485_" gradientUnits="userSpaceOnUse" x1="29.4663" y1="111.5162" x2="29.9843" y2="39.0012">
					<stop  offset="0" style="stop-color:#F08D21"/>
					<stop  offset="0.7166" style="stop-color:#F26222"/>
				</linearGradient>
				<path style="fill:url(#SVGID_00000080194198100949094280000001168821601377815485_);" d="M37.2,97.7c0.1,0,0.3,0,0.4,0
					c-8.4-0.1-15.3-5.2-15.3-12.9h-0.8C21.6,92.6,28.7,97.7,37.2,97.7z"/>
				
					<linearGradient id="SVGID_00000162346458043332757280000005981670843246947979_" gradientUnits="userSpaceOnUse" x1="62.2565" y1="111.7504" x2="62.7744" y2="39.2354">
					<stop  offset="0" style="stop-color:#F08D21"/>
					<stop  offset="0.7166" style="stop-color:#F26222"/>
				</linearGradient>
				<path style="fill:url(#SVGID_00000162346458043332757280000005981670843246947979_);" d="M57.6,105.9
					C64.1,101.3,68,94.1,68,84.9c0-7.6-2.4-14.7-12.2-19.7c-0.2,0-0.4,0-0.5,0.1c0,0-0.1,0-0.1,0c9.7,5,12.1,12.1,12.1,19.7
					c0,9.2-3.9,16.5-10.4,21.1c8.7,5.7,13.2,16.4,11.7,32.1h0.8C70.8,122.4,66.3,111.6,57.6,105.9z"/>
				
					<linearGradient id="SVGID_00000156551776771387750340000009259901808180897708_" gradientUnits="userSpaceOnUse" x1="8.9983" y1="67.3976" x2="8.9983" y2="67.3976">
					<stop  offset="0" style="stop-color:#F08D21"/>
					<stop  offset="0.7166" style="stop-color:#F26222"/>
				</linearGradient>
				<path style="fill:url(#SVGID_00000156551776771387750340000009259901808180897708_);" d="M9,67.4"/>
			</g>
			<g>
				
					<radialGradient id="SVGID_00000112600363575879031110000015845032156976362910_" cx="67.3988" cy="134.215" r="9.3539" gradientUnits="userSpaceOnUse">
					<stop  offset="0" style="stop-color:#FFFFFF"/>
					<stop  offset="1" style="stop-color:#FFFFFF;stop-opacity:0"/>
				</radialGradient>
				<path style="fill:url(#SVGID_00000112600363575879031110000015845032156976362910_);" d="M38,25.8h-0.4
					c8.3,0.2,15.2,6.7,15.2,16.9c0,10-6.6,16.2-14.6,16.6c0,0,0,0,0,0c8.5-0.1,15.4-6.4,15.4-16.6C53.5,32.4,46.5,25.8,38,25.8z"/>
				
					<radialGradient id="SVGID_00000114787762329368321410000006769968239908123554_" cx="67.3988" cy="134.215" r="9.3539" gradientUnits="userSpaceOnUse">
					<stop  offset="0" style="stop-color:#FFFFFF"/>
					<stop  offset="1" style="stop-color:#FFFFFF;stop-opacity:0"/>
				</radialGradient>
				<path style="fill:url(#SVGID_00000114787762329368321410000006769968239908123554_);" d="M39.9,150.8c0.2,0,0.3,0,0.5,0
					c5.3,0,12.1-1.9,15.6-5.2l-0.4-0.4C52.3,148.7,45.3,150.7,39.9,150.8z"/>
				
					<radialGradient id="SVGID_00000031893624150669151070000000294715931861833888_" cx="67.3988" cy="134.215" r="9.3539" gradientUnits="userSpaceOnUse">
					<stop  offset="0" style="stop-color:#FFFFFF"/>
					<stop  offset="1" style="stop-color:#FFFFFF;stop-opacity:0"/>
				</radialGradient>
				<path style="fill:url(#SVGID_00000031893624150669151070000000294715931861833888_);" d="M53.2,84.9c0,8.3-6.7,12.9-15.2,12.9
					c-0.1,0-0.2,0-0.3,0c0.5,0,1,0,1.5-0.1c0.5,0,1-0.1,1.4-0.2c0,0,0.1,0,0.1,0c0.4-0.1,0.8-0.1,1.2-0.2c0.1,0,0.2-0.1,0.4-0.1
					c0.3-0.1,0.7-0.2,1-0.3c0.1,0,0.2-0.1,0.3-0.1c0.3-0.1,0.7-0.2,1-0.4c0.1,0,0.2-0.1,0.3-0.1c0.3-0.1,0.6-0.3,0.9-0.4
					c0.4-0.2,0.7-0.4,1.1-0.6c0.3-0.2,0.5-0.4,0.8-0.6c0.8-0.6,1.4-1.3,2-2c0.1-0.1,0.2-0.3,0.3-0.4c0.4-0.6,0.8-1.2,1.1-1.9
					c0.2-0.4,0.3-0.8,0.5-1.2c0.4-1.3,0.7-2.7,0.7-4.3c0-8.3-7.8-12.1-15.3-12c-2.5,0-4.8-0.3-7.2-0.8C17.9,69.3,8.3,59.5,7.1,46.7
					c-0.1-1.5-0.2-2.9-0.2-4.3c0-7.5,2.3-13.8,6-18.7c0.5-0.7,1.1-1.4,1.7-2c0.2-0.2,0.4-0.4,0.6-0.6c0.8-0.8,1.7-1.6,2.6-2.3
					c0.4-0.3,0.8-0.6,1.2-0.9c0,0,0.1-0.1,0.2-0.1c0.4-0.3,0.7-0.5,1.1-0.7c0.1-0.1,0.2-0.2,0.4-0.2c0.4-0.3,0.8-0.5,1.3-0.7
					c0.4-0.2,0.9-0.5,1.3-0.7c0.2-0.1,0.5-0.2,0.7-0.3c0.7-0.3,1.4-0.6,2.1-0.8l0.9-0.3c0.4-0.1,0.8-0.2,1.2-0.4
					c1.1-0.3,2.2-0.6,3.3-0.7c0.3-0.1,0.6-0.1,0.9-0.1c1-0.2,2.1-0.2,3.1-0.3c0.6,0,1.1,0,1.7,0h0.4c-0.5,0-0.9,0-1.3,0
					c-1.1,0-2.1,0.1-3.1,0.3c-0.3,0-0.6,0.1-0.9,0.1c-1.1,0.2-2.3,0.4-3.3,0.7c-0.4,0.1-0.8,0.2-1.2,0.4l-0.9,0.3
					c-0.9,0.3-1.9,0.7-2.8,1.1c-0.1,0-0.2,0.1-0.3,0.2c-0.3,0.2-0.7,0.3-1,0.5c-0.4,0.2-0.9,0.5-1.3,0.7c-0.1,0.1-0.2,0.1-0.4,0.2
					c-0.4,0.2-0.8,0.5-1.1,0.7c-0.1,0-0.1,0.1-0.2,0.1c-0.4,0.3-0.8,0.6-1.2,0.9c-0.9,0.7-1.8,1.5-2.6,2.3c-0.2,0.2-0.4,0.4-0.6,0.6
					c-0.5,0.5-1,1.1-1.4,1.7c-0.1,0.1-0.2,0.2-0.2,0.3c-3.5,4.6-5.7,10.3-6,17.1c0,0.5,0,1,0,1.6c0,1.4,0,2.8,0.2,4.3
					c1.2,12.5,10.3,22.1,22,25.1c2.6,0.7,5.3,1,8.1,1C45.3,72.8,53.2,76.6,53.2,84.9z"/>
				
					<radialGradient id="SVGID_00000139293925036934003820000002527539738586674096_" cx="67.3988" cy="134.215" r="9.3539" gradientUnits="userSpaceOnUse">
					<stop  offset="0" style="stop-color:#FFFFFF"/>
					<stop  offset="1" style="stop-color:#FFFFFF;stop-opacity:0"/>
				</radialGradient>
				<path style="fill:url(#SVGID_00000139293925036934003820000002527539738586674096_);" d="M37.6,164.2
					c-19.1-1-30.4-13.5-30.4-31.8c0-11,4.6-20.1,12.4-25.6c-7.4-4.6-12-12.2-12-21.8H6.9c0,9.6,4.6,17.2,12,21.8
					c-7.9,5.5-12.4,14.6-12.4,25.6C6.5,151,18.1,163.5,37.6,164.2C37.7,164.2,37.6,164.2,37.6,164.2z"/>
				
					<radialGradient id="SVGID_00000007409198726739877210000015496225707415665853_" cx="67.3988" cy="134.215" r="9.3539" gradientUnits="userSpaceOnUse">
					<stop  offset="0" style="stop-color:#FFFFFF"/>
					<stop  offset="1" style="stop-color:#FFFFFF;stop-opacity:0"/>
				</radialGradient>
				<path style="fill:url(#SVGID_00000007409198726739877210000015496225707415665853_);" d="M22,125.8h0.8
					c2.1-7.6,8.5-11.5,16.4-11.6c-0.1,0-0.3,0-0.4,0C30.8,114.1,24.2,118,22,125.8z"/>
				
					<radialGradient id="SVGID_00000130607474373118039230000005415465858871097740_" cx="67.3988" cy="134.215" r="9.3539" gradientUnits="userSpaceOnUse">
					<stop  offset="0" style="stop-color:#FFFFFF"/>
					<stop  offset="1" style="stop-color:#FFFFFF;stop-opacity:0"/>
				</radialGradient>
				<path style="fill:url(#SVGID_00000130607474373118039230000005415465858871097740_);" d="M37.2,97.7c0.1,0,0.3,0,0.4,0
					c-8.4-0.1-15.3-5.2-15.3-12.9h-0.8C21.6,92.6,28.7,97.7,37.2,97.7z"/>
				
					<radialGradient id="SVGID_00000049923021501811779150000002117030632594307476_" cx="66.7513" cy="134.215" r="9.3539" gradientUnits="userSpaceOnUse">
					<stop  offset="0" style="stop-color:#FFFFFF"/>
					<stop  offset="1" style="stop-color:#FFFFFF;stop-opacity:0"/>
				</radialGradient>
				<path style="fill:url(#SVGID_00000049923021501811779150000002117030632594307476_);" d="M56.9,105.9
					c6.5-4.6,10.4-11.8,10.4-21.1c0-7.6-2.4-14.7-12.2-19.7c-0.2,0-0.4,0-0.5,0.1c0,0-0.1,0-0.1,0c9.7,5,12.1,12.1,12.1,19.7
					c0,9.2-3.9,16.5-10.4,21.1c8.7,5.7,13.2,16.4,11.7,32.1h0.8C70.1,122.4,65.6,111.6,56.9,105.9z"/>
				
					<radialGradient id="SVGID_00000011732151129013498630000005867806804029809080_" cx="8.9983" cy="67.3976" r="0" gradientUnits="userSpaceOnUse">
					<stop  offset="0" style="stop-color:#FFFFFF"/>
					<stop  offset="1" style="stop-color:#FFFFFF;stop-opacity:0"/>
				</radialGradient>
				<path style="fill:url(#SVGID_00000011732151129013498630000005867806804029809080_);" d="M9,67.4"/>
			</g>
			
				<radialGradient id="SVGID_00000155114198048624802690000003907247568273154743_" cx="11.7176" cy="26.4137" r="22.8977" gradientTransform="matrix(-0.7469 0.6649 -0.2681 -0.3011 27.5508 26.5768)" gradientUnits="userSpaceOnUse">
				<stop  offset="0" style="stop-color:#FFFFFF"/>
				<stop  offset="1" style="stop-color:#FFFFFF;stop-opacity:0"/>
			</radialGradient>
			<path style="fill:url(#SVGID_00000155114198048624802690000003907247568273154743_);" d="M56.6,106C63.1,101.4,67,94.1,67,84.9
				c0-7.7-2.4-14.8-12.4-19.8c9.8-4.5,12.6-14.9,12.6-22.4c0-6.6-1.7-12.5-6.3-17.7l6.7-8.5L56.7,8.3l-6,7.5
				c-4.1-2.8-9-3.4-13.7-3.4c-17.9,0-32.2,13.3-30.2,34.4C8.3,62,21.6,73,36.9,72.9c7.4,0,15.3,3.7,15.3,12
				c0,8.3-6.7,12.9-15.2,12.9c-8.5,0-15.7-5.1-15.7-12.9H6.6c0,9.6,4.6,17.2,12,21.8c-7.9,5.5-12.4,14.6-12.4,25.6
				c0,19.2,12.3,31.9,32.9,31.9c9.1,0,19.4-3.2,25.7-9.7l-9.5-9.4c-3.4,3.5-10.6,5.6-16,5.6c-10.5,0-16.9-5.3-17.9-12.8h46.8
				C69.8,122.4,65.2,111.7,56.6,106z M67.6,137.4H20.7l0.1,0.9c1.1,8.3,8.2,13.4,18.6,13.4c5.2,0,12.2-1.8,16-5.3l8.4,8.3
				c-5.7,5.5-15,8.9-24.6,8.9C19.3,163.6,7,151.6,7,132.4c0-10.7,4.3-19.5,12.1-25l1-0.7l-1-0.6c-7.3-4.6-11.4-11.8-11.7-20.4h13.1
				C21,93.1,27.9,98.6,37,98.6c9.6,0,16-5.5,16-13.6c0-8.8-8.3-12.8-16-12.8h-0.2C21.6,72.1,9,61.2,7.6,46.7c-1-9.6,1.5-18,7.1-24.2
				c5.5-6,13.4-9.3,22.3-9.3c3.9,0,9,0.4,13.3,3.3l0.6,0.4l5.9-7.5l9.7,7.3l-6.6,8.4l0.4,0.5c4.1,4.7,6.1,10.3,6.1,17.2
				c0,3.8-0.9,16.5-12.2,21.6l-1.5,0.7l1.4,0.7c8.3,4.1,12,10,12,19.1c0,8.5-3.6,15.8-10.1,20.4l-0.9,0.7l0.9,0.6
				C64.8,112.4,68.8,123,67.6,137.4z M38.6,113.4c-8.8,0-15.4,4.6-17.5,12.2l-0.3,1H55l-0.1-0.9C53.9,117.9,47.9,113.4,38.6,113.4z
				 M21.8,125.9c2.2-7.8,8.7-11.7,16.8-11.7c8.5,0,14.6,3.9,15.6,11.7H21.8z M37,25.1c-9.5,0-16.4,7.4-16.4,17.7
				c0,10.3,6.8,17.4,16.4,17.4c9.5,0,16.3-7.3,16.3-17.4C53.3,32.6,46.5,25.1,37,25.1z M37,59.4c-8.6,0-15.7-6.2-15.7-16.6
				c0-10.4,7-16.9,15.7-16.9c8.5,0,15.6,6.6,15.6,16.9C52.5,53.1,45.5,59.4,37,59.4z"/>
			
				<radialGradient id="SVGID_00000168102393083611793590000017072482613270942891_" cx="7.6387" cy="129.9418" r="16.5204" gradientUnits="userSpaceOnUse">
				<stop  offset="0" style="stop-color:#FFFFFF"/>
				<stop  offset="1" style="stop-color:#FFFFFF;stop-opacity:0"/>
			</radialGradient>
			<path style="fill:url(#SVGID_00000168102393083611793590000017072482613270942891_);" d="M56.6,106C63.1,101.4,67,94.1,67,84.9
				c0-7.7-2.4-14.8-12.4-19.8c9.8-4.5,12.6-14.9,12.6-22.4c0-6.6-1.7-12.5-6.3-17.7l6.7-8.5L56.7,8.3l-6,7.5
				c-4.1-2.8-9-3.4-13.7-3.4c-17.9,0-32.2,13.3-30.2,34.4C8.3,62,21.6,73,36.9,72.9c7.4,0,15.3,3.7,15.3,12
				c0,8.3-6.7,12.9-15.2,12.9c-8.5,0-15.7-5.1-15.7-12.9H6.6c0,9.6,4.6,17.2,12,21.8c-7.9,5.5-12.4,14.6-12.4,25.6
				c0,19.2,12.3,31.9,32.9,31.9c9.1,0,19.4-3.2,25.7-9.7l-9.5-9.4c-3.4,3.5-10.6,5.6-16,5.6c-10.5,0-16.9-5.3-17.9-12.8h46.8
				C69.8,122.4,65.2,111.7,56.6,106z M67.6,137.4H20.7l0.1,0.9c1.1,8.3,8.2,13.4,18.6,13.4c5.2,0,12.2-1.8,16-5.3l8.4,8.3
				c-5.7,5.5-15,8.9-24.6,8.9C19.3,163.6,7,151.6,7,132.4c0-10.7,4.3-19.5,12.1-25l1-0.7l-1-0.6c-7.3-4.6-11.4-11.8-11.7-20.4h13.1
				C21,93.1,27.9,98.6,37,98.6c9.6,0,16-5.5,16-13.6c0-8.8-8.3-12.8-16-12.8h-0.2C21.6,72.1,9,61.2,7.6,46.7c-1-9.6,1.5-18,7.1-24.2
				c5.5-6,13.4-9.3,22.3-9.3c3.9,0,9,0.4,13.3,3.3l0.6,0.4l5.9-7.5l9.7,7.3l-6.6,8.4l0.4,0.5c4.1,4.7,6.1,10.3,6.1,17.2
				c0,3.8-0.9,16.5-12.2,21.6l-1.5,0.7l1.4,0.7c8.3,4.1,12,10,12,19.1c0,8.5-3.6,15.8-10.1,20.4l-0.9,0.7l0.9,0.6
				C64.8,112.4,68.8,123,67.6,137.4z M38.6,113.4c-8.8,0-15.4,4.6-17.5,12.2l-0.3,1H55l-0.1-0.9C53.9,117.9,47.9,113.4,38.6,113.4z
				 M21.8,125.9c2.2-7.8,8.7-11.7,16.8-11.7c8.5,0,14.6,3.9,15.6,11.7H21.8z M37,25.1c-9.5,0-16.4,7.4-16.4,17.7
				c0,10.3,6.8,17.4,16.4,17.4c9.5,0,16.3-7.3,16.3-17.4C53.3,32.6,46.5,25.1,37,25.1z M37,59.4c-8.6,0-15.7-6.2-15.7-16.6
				c0-10.4,7-16.9,15.7-16.9c8.5,0,15.6,6.6,15.6,16.9C52.5,53.1,45.5,59.4,37,59.4z"/>
			
				<radialGradient id="SVGID_00000013190317989930484970000004701563011092027837_" cx="52.5073" cy="83.9077" r="12.0427" gradientUnits="userSpaceOnUse">
				<stop  offset="0" style="stop-color:#FFFFFF"/>
				<stop  offset="1" style="stop-color:#FFFFFF;stop-opacity:0"/>
			</radialGradient>
			<path style="fill:url(#SVGID_00000013190317989930484970000004701563011092027837_);" d="M56.6,106C63.1,101.4,67,94.1,67,84.9
				c0-7.7-2.4-14.8-12.4-19.8c9.8-4.5,12.6-14.9,12.6-22.4c0-6.6-1.7-12.5-6.3-17.7l6.7-8.5L56.7,8.3l-6,7.5
				c-4.1-2.8-9-3.4-13.7-3.4c-17.9,0-32.2,13.3-30.2,34.4C8.3,62,21.6,73,36.9,72.9c7.4,0,15.3,3.7,15.3,12
				c0,8.3-6.7,12.9-15.2,12.9c-8.5,0-15.7-5.1-15.7-12.9H6.6c0,9.6,4.6,17.2,12,21.8c-7.9,5.5-12.4,14.6-12.4,25.6
				c0,19.2,12.3,31.9,32.9,31.9c9.1,0,19.4-3.2,25.7-9.7l-9.5-9.4c-3.4,3.5-10.6,5.6-16,5.6c-10.5,0-16.9-5.3-17.9-12.8h46.8
				C69.8,122.4,65.2,111.7,56.6,106z M67.6,137.4H20.7l0.1,0.9c1.1,8.3,8.2,13.4,18.6,13.4c5.2,0,12.2-1.8,16-5.3l8.4,8.3
				c-5.7,5.5-15,8.9-24.6,8.9C19.3,163.6,7,151.6,7,132.4c0-10.7,4.3-19.5,12.1-25l1-0.7l-1-0.6c-7.3-4.6-11.4-11.8-11.7-20.4h13.1
				C21,93.1,27.9,98.6,37,98.6c9.6,0,16-5.5,16-13.6c0-8.8-8.3-12.8-16-12.8h-0.2C21.6,72.1,9,61.2,7.6,46.7c-1-9.6,1.5-18,7.1-24.2
				c5.5-6,13.4-9.3,22.3-9.3c3.9,0,9,0.4,13.3,3.3l0.6,0.4l5.9-7.5l9.7,7.3l-6.6,8.4l0.4,0.5c4.1,4.7,6.1,10.3,6.1,17.2
				c0,3.8-0.9,16.5-12.2,21.6l-1.5,0.7l1.4,0.7c8.3,4.1,12,10,12,19.1c0,8.5-3.6,15.8-10.1,20.4l-0.9,0.7l0.9,0.6
				C64.8,112.4,68.8,123,67.6,137.4z M37,25.1c-9.5,0-16.4,7.4-16.4,17.7c0,10.3,6.8,17.4,16.4,17.4c9.5,0,16.3-7.3,16.3-17.4
				C53.3,32.6,46.5,25.1,37,25.1z M37,59.4c-8.6,0-15.7-6.2-15.7-16.6c0-10.4,7-16.9,15.7-16.9c8.5,0,15.6,6.6,15.6,16.9
				C52.5,53.1,45.5,59.4,37,59.4z"/>
			
				<radialGradient id="SVGID_00000133516612133557972250000014296070241574000002_" cx="66.6866" cy="41.1757" r="8.9539" gradientUnits="userSpaceOnUse">
				<stop  offset="0" style="stop-color:#FFFFFF"/>
				<stop  offset="1" style="stop-color:#FFFFFF;stop-opacity:0"/>
			</radialGradient>
			<path style="fill:url(#SVGID_00000133516612133557972250000014296070241574000002_);" d="M56.6,106C63.1,101.4,67,94.1,67,84.9
				c0-7.7-2.4-14.8-12.4-19.8c9.8-4.5,12.6-14.9,12.6-22.4c0-6.6-1.7-12.5-6.3-17.7l6.7-8.5L56.7,8.3l-6,7.5
				c-4.1-2.8-9-3.4-13.7-3.4c-17.9,0-32.2,13.3-30.2,34.4C8.3,62,21.6,73,36.9,72.9c7.4,0,15.3,3.7,15.3,12
				c0,8.3-6.7,12.9-15.2,12.9c-8.5,0-15.7-5.1-15.7-12.9H6.6c0,9.6,4.6,17.2,12,21.8c-7.9,5.5-12.4,14.6-12.4,25.6
				c0,19.2,12.3,31.9,32.9,31.9c9.1,0,19.4-3.2,25.7-9.7l-9.5-9.4c-3.4,3.5-10.6,5.6-16,5.6c-10.5,0-16.9-5.3-17.9-12.8h46.8
				C69.8,122.4,65.2,111.7,56.6,106z M67.6,137.4H20.7l0.1,0.9c1.1,8.3,8.2,13.4,18.6,13.4c5.2,0,12.2-1.8,16-5.3l8.4,8.3
				c-5.7,5.5-15,8.9-24.6,8.9C19.3,163.6,7,151.6,7,132.4c0-10.7,4.3-19.5,12.1-25l1-0.7l-1-0.6c-7.3-4.6-11.4-11.8-11.7-20.4h13.1
				C21,93.1,27.9,98.6,37,98.6c9.6,0,16-5.5,16-13.6c0-8.8-8.3-12.8-16-12.8h-0.2C21.6,72.1,9,61.2,7.6,46.7c-1-9.6,1.5-18,7.1-24.2
				c5.5-6,13.4-9.3,22.3-9.3c3.9,0,9,0.4,13.3,3.3l0.6,0.4l5.9-7.5l9.7,7.3l-6.6,8.4l0.4,0.5c4.1,4.7,6.1,10.3,6.1,17.2
				c0,3.8-0.9,16.5-12.2,21.6l-1.5,0.7l1.4,0.7c8.3,4.1,12,10,12,19.1c0,8.5-3.6,15.8-10.1,20.4l-0.9,0.7l0.9,0.6
				C64.8,112.4,68.8,123,67.6,137.4z M37,25.1c-9.5,0-16.4,7.4-16.4,17.7c0,10.3,6.8,17.4,16.4,17.4c9.5,0,16.3-7.3,16.3-17.4
				C53.3,32.6,46.5,25.1,37,25.1z M37,59.4c-8.6,0-15.7-6.2-15.7-16.6c0-10.4,7-16.9,15.7-16.9c8.5,0,15.6,6.6,15.6,16.9
				C52.5,53.1,45.5,59.4,37,59.4z"/>
			
				<radialGradient id="SVGID_00000147190396371537352830000009620588436782328716_" cx="65.9096" cy="154.6098" r="8.3544" gradientUnits="userSpaceOnUse">
				<stop  offset="0" style="stop-color:#FFFFFF"/>
				<stop  offset="1" style="stop-color:#FFFFFF;stop-opacity:0"/>
			</radialGradient>
			<path style="fill:url(#SVGID_00000147190396371537352830000009620588436782328716_);" d="M56.6,106C63.1,101.4,67,94.1,67,84.9
				c0-7.7-2.4-14.8-12.4-19.8c9.8-4.5,12.6-14.9,12.6-22.4c0-6.6-1.7-12.5-6.3-17.7l6.7-8.5L56.7,8.3l-6,7.5
				c-4.1-2.8-9-3.4-13.7-3.4c-17.9,0-32.2,13.3-30.2,34.4C8.3,62,21.6,73,36.9,72.9c7.4,0,15.3,3.7,15.3,12
				c0,8.3-6.7,12.9-15.2,12.9c-8.5,0-15.7-5.1-15.7-12.9H6.6c0,9.6,4.6,17.2,12,21.8c-7.9,5.5-12.4,14.6-12.4,25.6
				c0,19.2,12.3,31.9,32.9,31.9c9.1,0,19.4-3.2,25.7-9.7l-9.5-9.4c-3.4,3.5-10.6,5.6-16,5.6c-10.5,0-16.9-5.3-17.9-12.8h46.8
				C69.8,122.4,65.2,111.7,56.6,106z M67.6,137.4H20.7l0.1,0.9c1.1,8.3,8.2,13.4,18.6,13.4c5.2,0,12.2-1.8,16-5.3l8.4,8.3
				c-5.7,5.5-15,8.9-24.6,8.9C19.3,163.6,7,151.6,7,132.4c0-10.7,4.3-19.5,12.1-25l1-0.7l-1-0.6c-7.3-4.6-11.4-11.8-11.7-20.4h13.1
				C21,93.1,27.9,98.6,37,98.6c9.6,0,16-5.5,16-13.6c0-8.8-8.3-12.8-16-12.8h-0.2C21.6,72.1,9,61.2,7.6,46.7c-1-9.6,1.5-18,7.1-24.2
				c5.5-6,13.4-9.3,22.3-9.3c3.9,0,9,0.4,13.3,3.3l0.6,0.4l5.9-7.5l9.7,7.3l-6.6,8.4l0.4,0.5c4.1,4.7,6.1,10.3,6.1,17.2
				c0,3.8-0.9,16.5-12.2,21.6l-1.5,0.7l1.4,0.7c8.3,4.1,12,10,12,19.1c0,8.5-3.6,15.8-10.1,20.4l-0.9,0.7l0.9,0.6
				C64.8,112.4,68.8,123,67.6,137.4z M37,25.1c-9.5,0-16.4,7.4-16.4,17.7c0,10.3,6.8,17.4,16.4,17.4c9.5,0,16.3-7.3,16.3-17.4
				C53.3,32.6,46.5,25.1,37,25.1z M37,59.4c-8.6,0-15.7-6.2-15.7-16.6c0-10.4,7-16.9,15.7-16.9c8.5,0,15.6,6.6,15.6,16.9
				C52.5,53.1,45.5,59.4,37,59.4z"/>
			
				<radialGradient id="SVGID_00000016052006709854499660000004761678944102757763_" cx="5.1136" cy="83.843" r="8.9048" gradientUnits="userSpaceOnUse">
				<stop  offset="0" style="stop-color:#FFFFFF"/>
				<stop  offset="1" style="stop-color:#FFFFFF;stop-opacity:0"/>
			</radialGradient>
			<path style="fill:url(#SVGID_00000016052006709854499660000004761678944102757763_);" d="M56.6,106C63.1,101.4,67,94.1,67,84.9
				c0-7.7-2.4-14.8-12.4-19.8c9.8-4.5,12.6-14.9,12.6-22.4c0-6.6-1.7-12.5-6.3-17.7l6.7-8.5L56.7,8.3l-6,7.5
				c-4.1-2.8-9-3.4-13.7-3.4c-17.9,0-32.2,13.3-30.2,34.4C8.3,62,21.6,73,36.9,72.9c7.4,0,15.3,3.7,15.3,12
				c0,8.3-6.7,12.9-15.2,12.9c-8.5,0-15.7-5.1-15.7-12.9H6.6c0,9.6,4.6,17.2,12,21.8c-7.9,5.5-12.4,14.6-12.4,25.6
				c0,19.2,12.3,31.9,32.9,31.9c9.1,0,19.4-3.2,25.7-9.7l-9.5-9.4c-3.4,3.5-10.6,5.6-16,5.6c-10.5,0-16.9-5.3-17.9-12.8h46.8
				C69.8,122.4,65.2,111.7,56.6,106z M67.6,137.4H20.7l0.1,0.9c1.1,8.3,8.2,13.4,18.6,13.4c5.2,0,12.2-1.8,16-5.3l8.4,8.3
				c-5.7,5.5-15,8.9-24.6,8.9C19.3,163.6,7,151.6,7,132.4c0-10.7,4.3-19.5,12.1-25l1-0.7l-1-0.6c-7.3-4.6-11.4-11.8-11.7-20.4h13.1
				C21,93.1,27.9,98.6,37,98.6c9.6,0,16-5.5,16-13.6c0-8.8-8.3-12.8-16-12.8h-0.2C21.6,72.1,9,61.2,7.6,46.7c-1-9.6,1.5-18,7.1-24.2
				c5.5-6,13.4-9.3,22.3-9.3c3.9,0,9,0.4,13.3,3.3l0.6,0.4l5.9-7.5l9.7,7.3l-6.6,8.4l0.4,0.5c4.1,4.7,6.1,10.3,6.1,17.2
				c0,3.8-0.9,16.5-12.2,21.6l-1.5,0.7l1.4,0.7c8.3,4.1,12,10,12,19.1c0,8.5-3.6,15.8-10.1,20.4l-0.9,0.7l0.9,0.6
				C64.8,112.4,68.8,123,67.6,137.4z M37,25.1c-9.5,0-16.4,7.4-16.4,17.7c0,10.3,6.8,17.4,16.4,17.4c9.5,0,16.3-7.3,16.3-17.4
				C53.3,32.6,46.5,25.1,37,25.1z M37,59.4c-8.6,0-15.7-6.2-15.7-16.6c0-10.4,7-16.9,15.7-16.9c8.5,0,15.6,6.6,15.6,16.9
				C52.5,53.1,45.5,59.4,37,59.4z"/>
			
				<radialGradient id="SVGID_00000024692837228061230290000015769139169364649362_" cx="69.0822" cy="16.5076" r="7.791" gradientUnits="userSpaceOnUse">
				<stop  offset="0" style="stop-color:#FFFFFF"/>
				<stop  offset="1" style="stop-color:#FFFFFF;stop-opacity:0"/>
			</radialGradient>
			<path style="fill:url(#SVGID_00000024692837228061230290000015769139169364649362_);" d="M56.6,106C63.1,101.4,67,94.1,67,84.9
				c0-7.7-2.4-14.8-12.4-19.8c9.8-4.5,12.6-14.9,12.6-22.4c0-6.6-1.7-12.5-6.3-17.7l6.7-8.5L56.7,8.3l-6,7.5
				c-4.1-2.8-9-3.4-13.7-3.4c-17.9,0-32.2,13.3-30.2,34.4C8.3,62,21.6,73,36.9,72.9c7.4,0,15.3,3.7,15.3,12
				c0,8.3-6.7,12.9-15.2,12.9c-8.5,0-15.7-5.1-15.7-12.9H6.6c0,9.6,4.6,17.2,12,21.8c-7.9,5.5-12.4,14.6-12.4,25.6
				c0,19.2,12.3,31.9,32.9,31.9c9.1,0,19.4-3.2,25.7-9.7l-9.5-9.4c-3.4,3.5-10.6,5.6-16,5.6c-10.5,0-16.9-5.3-17.9-12.8h46.8
				C69.8,122.4,65.2,111.7,56.6,106z M67.6,137.4H20.7l0.1,0.9c1.1,8.3,8.2,13.4,18.6,13.4c5.2,0,12.2-1.8,16-5.3l8.4,8.3
				c-5.7,5.5-15,8.9-24.6,8.9C19.3,163.6,7,151.6,7,132.4c0-10.7,4.3-19.5,12.1-25l1-0.7l-1-0.6c-7.3-4.6-11.4-11.8-11.7-20.4h13.1
				C21,93.1,27.9,98.6,37,98.6c9.6,0,16-5.5,16-13.6c0-8.8-8.3-12.8-16-12.8h-0.2C21.6,72.1,9,61.2,7.6,46.7c-1-9.6,1.5-18,7.1-24.2
				c5.5-6,13.4-9.3,22.3-9.3c3.9,0,9,0.4,13.3,3.3l0.6,0.4l5.9-7.5l9.7,7.3l-6.6,8.4l0.4,0.5c4.1,4.7,6.1,10.3,6.1,17.2
				c0,3.8-0.9,16.5-12.2,21.6l-1.5,0.7l1.4,0.7c8.3,4.1,12,10,12,19.1c0,8.5-3.6,15.8-10.1,20.4l-0.9,0.7l0.9,0.6
				C64.8,112.4,68.8,123,67.6,137.4z M37,25.1c-9.5,0-16.4,7.4-16.4,17.7c0,10.3,6.8,17.4,16.4,17.4c9.5,0,16.3-7.3,16.3-17.4
				C53.3,32.6,46.5,25.1,37,25.1z M37,59.4c-8.6,0-15.7-6.2-15.7-16.6c0-10.4,7-16.9,15.7-16.9c8.5,0,15.6,6.6,15.6,16.9
				C52.5,53.1,45.5,59.4,37,59.4z"/>
		</g>
		
			<linearGradient id="SVGID_00000083077115148605595050000012648746498255144126_" gradientUnits="userSpaceOnUse" x1="26.3766" y1="9.6157" x2="34.664" y2="93.7849">
			<stop  offset="0" style="stop-color:#FFFFFF;stop-opacity:0"/>
			<stop  offset="1" style="stop-color:#FFFFFF"/>
		</linearGradient>
		<path style="opacity:0.2;fill:url(#SVGID_00000083077115148605595050000012648746498255144126_);" d="M50.2,92.2
			c0.4-0.6,0.8-1.2,1.1-1.9c0.2-0.4,0.3-0.8,0.5-1.2c0.4-1.3,0.7-2.7,0.7-4.3c0-8.3-7.8-12.1-15.3-12c-2.4,0-4.8-0.3-7.1-0.8
			c0,0,0,0,0,0c-3.5-0.8-6.8-2.2-9.7-4.1l0,0h0C13,63.4,8,55.8,7.1,46.7c-0.1-0.8-0.1-1.5-0.2-2.3c0-0.7,0-1.3,0-2
			c0-7.5,2.3-13.8,6-18.7c0.5-0.7,1.1-1.4,1.7-2c0.2-0.2,0.4-0.4,0.6-0.6c0.8-0.8,1.7-1.6,2.6-2.3c0.4-0.3,0.8-0.6,1.2-0.9
			c0,0,0.1-0.1,0.2-0.1c0.4-0.3,0.7-0.5,1.1-0.7c0.1-0.1,0.2-0.2,0.4-0.2c0.4-0.3,0.8-0.5,1.3-0.7c0.4-0.2,0.9-0.5,1.3-0.7
			c0.2-0.1,0.5-0.2,0.7-0.3c0.7-0.3,1.4-0.6,2.1-0.8l0.9-0.3c0.4-0.1,0.8-0.2,1.2-0.4c1.1-0.3,2.2-0.6,3.3-0.7
			c0.3-0.1,0.6-0.1,0.9-0.1c1-0.2,2.1-0.2,3.1-0.3c0.6,0,1.1,0,1.7,0h0.4c1.2,0,2.4,0.1,3.6,0.2L40,21c0,0-27.2,0.2-23.3,25.9
			c0,0-0.2,15,27.3,20.1c5,0.9,9.4,4.2,11.3,8.9C57.1,80.7,57.3,86.8,50.2,92.2z"/>
		
			<linearGradient id="SVGID_00000134239613829047761580000005710140806955361714_" gradientUnits="userSpaceOnUse" x1="48.0837" y1="109.4545" x2="75.0178" y2="180.4156">
			<stop  offset="0" style="stop-color:#FFFFFF;stop-opacity:0"/>
			<stop  offset="1" style="stop-color:#FFFFFF"/>
		</linearGradient>
		<path style="opacity:0.38;fill:url(#SVGID_00000134239613829047761580000005710140806955361714_);" d="M68.6,138.1
			c-0.2,0-0.2,0.1-0.2,0.1c0,0,0,0,0-0.1c-10.7-33.6-34.8-27.4-34.8-27.4c4.2-1.4,10.9-11.2,19.2-10.6c-0.1,0.1-4.8-2.7-4.9-2.6
			c1.8,1.2,7.5,6.1,9.7,8.1c-0.1,0-0.2,0.1-0.2,0.2c-0.1,0.1-0.2,0.2-0.3,0.2C65.5,111.6,70,122.4,68.6,138.1z"/>
		
			<linearGradient id="SVGID_00000134224380393764575520000005381288757795962768_" gradientUnits="userSpaceOnUse" x1="35.7253" y1="128.987" x2="35.7253" y2="159.8681">
			<stop  offset="0" style="stop-color:#FFFFFF;stop-opacity:0"/>
			<stop  offset="1" style="stop-color:#FFFFFF"/>
		</linearGradient>
		<path style="opacity:0.2;fill:url(#SVGID_00000134224380393764575520000005381288757795962768_);" d="M65,154.7
			c-6.3,6.5-16.5,9.6-25.6,9.6c-13.1,0-22.9-5.2-28.2-13.9c-0.3-0.4-0.5-0.8-0.7-1.3c-0.2-0.4-0.5-0.9-0.7-1.3
			c-0.2-0.4-0.4-0.9-0.6-1.3c0,0,0-0.1,0-0.1c-0.4-0.9-0.7-1.8-1-2.8c-0.3-1-0.6-2-0.8-3.1c-0.2-1-0.4-2-0.5-3c0-0.1,0-0.1,0-0.2
			c-0.1-0.5-0.1-1.1-0.2-1.6c-0.1-1.1-0.1-2.3-0.1-3.4c0-7.3,2-13.8,5.7-19l13.7,3.5c0,0-5.4,3.8-7.5,11.4
			C14.5,142.4,22.6,168.4,65,154.7L65,154.7z"/>
		<g class="st31">
			<defs>
				
					<filter id="Adobe_OpacityMaskFilter_00000004528271439902033600000011404160739359472514_" filterUnits="userSpaceOnUse" x="6.5" y="8.2" width="62.3" height="156.1">
					<feFlood  style="flood-color:white;flood-opacity:1" result="back"/>
					<feBlend  in="SourceGraphic" in2="back" mode="normal"/>
				</filter>
			</defs>
			
				<mask maskUnits="userSpaceOnUse" x="6.5" y="8.2" width="62.3" height="156.1" id="SVGID_00000162348778341181705150000002050212044777217206_">
				<g style="filter:url(#Adobe_OpacityMaskFilter_00000004528271439902033600000011404160739359472514_);">
				</g>
			</mask>
			
				<radialGradient id="SVGID_00000063599610463249654020000004163830920611062666_" cx="41.2416" cy="83.325" r="102.7979" gradientUnits="userSpaceOnUse">
				<stop  offset="0" style="stop-color:#151011;stop-opacity:0.95"/>
				<stop  offset="0.2023" style="stop-color:#151011;stop-opacity:0.6512"/>
				<stop  offset="0.4256" style="stop-color:#151011;stop-opacity:0"/>
			</radialGradient>
			
				<path style="opacity:0.31;mask:url(#SVGID_00000162348778341181705150000002050212044777217206_);fill:url(#SVGID_00000063599610463249654020000004163830920611062666_);" d="
				M68.5,127c-1.1-9.8-5.3-16.8-11.7-21.1c0.1-0.1,0.2-0.2,0.3-0.2c0.1-0.1,0.2-0.1,0.2-0.2c6-4.5,9.7-11.4,9.8-20.1
				c0-0.2,0-0.4,0-0.5c0-1.1,0-2.2-0.2-3.2c0-0.3-0.1-0.7-0.1-1c0-0.2,0-0.4-0.1-0.5c-0.1-0.7-0.3-1.4-0.5-2.1
				c-0.5-1.8-1.2-3.5-2.3-5.1c-0.1-0.1-0.2-0.2-0.3-0.4c-0.3-0.5-0.7-0.9-1.1-1.4c-0.2-0.2-0.3-0.4-0.5-0.6
				c-0.1-0.1-0.2-0.3-0.4-0.4c-0.1-0.1-0.1-0.1-0.2-0.2c-0.1-0.1-0.3-0.3-0.4-0.4c-0.2-0.2-0.5-0.5-0.8-0.7
				c-0.2-0.2-0.4-0.4-0.7-0.5c-0.2-0.2-0.5-0.4-0.7-0.5c-0.5-0.3-1-0.7-1.5-1c-0.3-0.2-0.7-0.4-1-0.6c-0.5-0.3-1-0.6-1.5-0.8
				c-0.1,0-0.2-0.1-0.3-0.1c8.2-3.8,11.5-11.7,12.4-18.5c0.2-1.3,0.2-2.6,0.2-3.8c0-0.9,0-1.7-0.1-2.5c-0.2-2.3-0.6-4.6-1.3-6.7
				c-0.9-2.8-2.4-5.4-4.4-7.9c-0.2-0.2-0.3-0.4-0.5-0.6l6.7-8.5L56.9,8.2l-6,7.5c-2.5-1.7-5.3-2.6-8.1-3c-0.5-0.1-1.1-0.2-1.6-0.2
				c-1.2-0.1-2.4-0.2-3.6-0.2h-0.4c-0.6,0-1.1,0-1.7,0c-1.1,0-2.1,0.1-3.1,0.3c-0.3,0-0.6,0.1-0.9,0.1c-1.1,0.2-2.3,0.4-3.3,0.7
				c-0.4,0.1-0.8,0.2-1.2,0.4L26,14.3c-0.7,0.2-1.4,0.5-2.1,0.8c-0.2,0.1-0.5,0.2-0.7,0.3c-0.5,0.2-0.9,0.4-1.3,0.7
				c-0.4,0.2-0.9,0.5-1.3,0.7c-0.1,0.1-0.2,0.1-0.4,0.2c-0.4,0.2-0.8,0.5-1.1,0.7c-0.1,0-0.1,0.1-0.2,0.1c-0.4,0.3-0.8,0.6-1.2,0.9
				c-0.9,0.7-1.8,1.5-2.6,2.3c-0.2,0.2-0.4,0.4-0.6,0.6c-0.6,0.6-1.1,1.3-1.7,2c-3.7,4.9-6,11.2-6,18.7c0,0.7,0,1.3,0,2
				c0,0.7,0.1,1.5,0.2,2.3C8,55.8,13,63.4,20.2,68h0l0,0c2.9,1.9,6.2,3.3,9.7,4.1c0,0,0,0,0,0c2.3,0.5,4.7,0.8,7.1,0.8
				c7.4,0,15.3,3.7,15.3,12c0,0.1,0,0.1,0,0.2c0,1.5-0.2,2.8-0.7,4.1c-0.1,0.4-0.3,0.8-0.5,1.2c-0.3,0.7-0.7,1.3-1.1,1.9
				c-0.1,0.1-0.2,0.3-0.3,0.4c-0.6,0.7-1.3,1.4-2,2c-0.2,0.2-0.5,0.4-0.8,0.6c-0.4,0.2-0.7,0.5-1.1,0.6c-0.3,0.2-0.6,0.3-0.9,0.4
				c-0.1,0.1-0.2,0.1-0.3,0.1c-0.3,0.2-0.6,0.3-1,0.4c-0.1,0-0.2,0.1-0.3,0.1c-0.3,0.1-0.7,0.2-1,0.3c-0.1,0-0.2,0.1-0.4,0.1
				c-0.4,0.1-0.8,0.2-1.2,0.2c0,0-0.1,0-0.1,0c-0.5,0.1-0.9,0.2-1.4,0.2c-0.5,0-1,0.1-1.5,0.1c0,0,0,0,0,0c-0.1,0-0.3,0-0.4,0
				c-8.5,0-15.7-5.1-15.7-12.9H6.9c0,9.3,4.3,16.7,11.2,21.3c0.3,0.2,0.5,0.4,0.8,0.5c-2.6,1.8-4.9,4.1-6.7,6.6
				c-0.2,0.3-0.4,0.5-0.6,0.8c-1,1.4-1.8,2.9-2.5,4.6c-1.8,4.1-2.7,8.6-2.7,13.6c0,1.2,0,2.3,0.1,3.4c0,0.6,0.1,1.1,0.2,1.6
				c0,0,0,0.1,0,0.2c0.1,1,0.3,2.1,0.5,3c0.2,1,0.5,2.1,0.8,3.1c0.3,1,0.6,1.9,1,2.8c0,0,0,0,0,0.1c0.2,0.5,0.4,0.9,0.6,1.3
				c0.2,0.5,0.4,0.9,0.7,1.3c0.2,0.4,0.5,0.9,0.7,1.3c5.3,8.7,15.1,13.9,28.2,13.9c9,0,19.2-3.1,25.6-9.6c0.1,0,0.1-0.1,0.2-0.2
				l-9.1-9l-0.4-0.4c-2.1,2.2-5.8,3.9-9.6,4.8c-0.3,0.1-0.7,0.2-1,0.2c-0.3,0.1-0.6,0.1-0.9,0.2c-0.3,0.1-0.6,0.1-0.9,0.1
				c-0.4,0.1-0.9,0.1-1.3,0.2c-0.3,0-0.7,0.1-1,0.1c-0.3,0-0.7,0-1,0h-0.1c-0.1,0-0.2,0-0.3,0c-10.4,0-16.9-5.3-17.9-12.8h46.8
				C68.9,134,68.9,130.4,68.5,127z M52.3,47.1c0,0,0,0.1,0,0.2c-0.1,0.5-0.2,1-0.4,1.4c-0.1,0.3-0.2,0.5-0.3,0.8
				c-0.1,0.2-0.2,0.5-0.3,0.7c-0.1,0.2-0.2,0.5-0.3,0.7c-0.1,0.2-0.2,0.5-0.4,0.7c-0.1,0.2-0.2,0.4-0.4,0.7
				c-0.1,0.2-0.3,0.4-0.4,0.6c-0.1,0.2-0.3,0.4-0.4,0.6c-0.7,1-1.6,1.9-2.5,2.6c-0.2,0.2-0.4,0.3-0.6,0.4c-0.6,0.4-1.2,0.8-1.8,1.1
				c-1.5,0.8-3.1,1.3-4.8,1.5c-0.2,0-0.5,0.1-0.7,0.1c-0.2,0-0.5,0.1-0.8,0.1c0,0,0,0,0,0c-0.3,0-0.6,0-0.9,0
				c-8.6,0-15.7-6.2-15.7-16.6c0-10.5,7.1-16.9,15.7-16.9h0.4c0.1,0,0.3,0,0.4,0c0.3,0,0.5,0,0.8,0.1c0.2,0,0.5,0.1,0.8,0.1
				c0.2,0,0.4,0.1,0.5,0.1c0.2,0,0.4,0.1,0.5,0.1c0.2,0,0.5,0.1,0.7,0.2c0.2,0,0.4,0.1,0.7,0.2c0.3,0.1,0.6,0.2,0.9,0.3
				c0.2,0.1,0.4,0.1,0.5,0.2c0.2,0.1,0.5,0.2,0.7,0.3c0.4,0.2,0.9,0.5,1.3,0.7c0.2,0.1,0.4,0.3,0.6,0.4c0.3,0.2,0.7,0.5,1,0.8
				c0.2,0.2,0.4,0.3,0.5,0.5c0.6,0.5,1.1,1.1,1.6,1.7c0.2,0.2,0.3,0.4,0.5,0.6c1.2,1.8,2.2,3.8,2.7,6.2c0,0.2,0.1,0.5,0.1,0.7
				c0,0.1,0,0.2,0,0.3c0.1,0.4,0.1,0.8,0.2,1.2c0.1,0.7,0.1,1.4,0.1,2.1c0,1.2-0.1,2.4-0.3,3.5C52.4,46.5,52.4,46.8,52.3,47.1z
				 M22,125.8c1-3.4,2.8-6.1,5.2-8c3.1-2.4,7.1-3.7,11.6-3.7c0.1,0,0.3,0,0.4,0c8.3,0.1,14.2,4,15.2,11.6H22z"/>
			
				<linearGradient id="SVGID_00000088829077842459403320000006762210693212039320_" gradientUnits="userSpaceOnUse" x1="46.7281" y1="79.5499" x2="-11.5429" y2="-5.1372">
				<stop  offset="0" style="stop-color:#FFFFFF;stop-opacity:0"/>
				<stop  offset="1" style="stop-color:#FFFFFF"/>
			</linearGradient>
			<path style="fill:url(#SVGID_00000088829077842459403320000006762210693212039320_);" d="M56.8,105.9c0.1-0.1,0.2-0.2,0.3-0.2
				c0.1-0.1,0.2-0.1,0.2-0.2c1.4-1,2.6-2.2,3.7-3.5c3.8-4.3,6-9.9,6.1-16.6c0-0.2,0-0.4,0-0.5c0-1.1,0-2.2-0.2-3.2
				c0-0.3-0.1-0.7-0.1-1c0-0.2,0-0.4-0.1-0.5c-0.1-0.7-0.3-1.4-0.5-2.1c-0.5-1.8-1.2-3.5-2.3-5.1c-0.1-0.1-0.2-0.2-0.3-0.4
				c-0.3-0.5-0.7-0.9-1.1-1.4c-0.2-0.2-0.3-0.4-0.5-0.6c-0.1-0.1-0.2-0.3-0.4-0.4c-0.1-0.1-0.1-0.1-0.2-0.2
				c-0.1-0.1-0.3-0.3-0.4-0.4c-0.2-0.2-0.5-0.5-0.8-0.7c-0.2-0.2-0.4-0.4-0.7-0.5c-0.2-0.2-0.5-0.4-0.7-0.5c-0.5-0.3-1-0.7-1.5-1
				c-0.3-0.2-0.7-0.4-1-0.6c-0.5-0.3-1-0.6-1.5-0.8c-0.1,0-0.2-0.1-0.3-0.1c8.2-3.8,11.5-11.7,12.4-18.5c0.2-1.3,0.2-2.6,0.2-3.8
				c0-0.9,0-1.7-0.1-2.5c-0.2-2.3-0.6-4.6-1.3-6.7c0-0.1-0.1-0.2-0.1-0.3c-0.2-0.7-0.5-1.3-0.8-2c-0.9-1.9-2-3.8-3.5-5.6
				c-0.2-0.2-0.3-0.4-0.5-0.6l6.7-8.5L56.9,8.2l-6,7.5c-2.5-1.7-5.3-2.6-8.1-3c-0.5-0.1-1.1-0.2-1.6-0.2c-1.2-0.1-2.4-0.2-3.6-0.2
				h-0.4c-0.6,0-1.1,0-1.7,0c-1.1,0-2.1,0.1-3.1,0.3c-0.3,0-0.6,0.1-0.9,0.1c-1.1,0.2-2.3,0.4-3.3,0.7c-0.4,0.1-0.8,0.2-1.2,0.4
				L26,14.3c-0.7,0.2-1.4,0.5-2.1,0.8c-0.2,0.1-0.5,0.2-0.7,0.3c-0.5,0.2-0.9,0.4-1.3,0.7c-0.4,0.2-0.9,0.5-1.3,0.7
				c-0.1,0.1-0.2,0.1-0.4,0.2c-0.4,0.2-0.8,0.5-1.1,0.7c-0.1,0-0.1,0.1-0.2,0.1c-0.4,0.3-0.8,0.6-1.2,0.9c-0.9,0.7-1.8,1.5-2.6,2.3
				c-0.2,0.2-0.4,0.4-0.6,0.6c-0.6,0.6-1.1,1.3-1.7,2c-3.7,4.9-6,11.2-6,18.7c0,0.7,0,1.3,0,2c0,0.7,0.1,1.5,0.2,2.3
				C8,55.8,13,63.4,20.2,68h0l0,0c2.9,1.9,6.2,3.3,9.7,4.1c0,0,0,0,0,0c1.4,0.3,2.8,0.6,4.3,0.7c0.9,0.1,1.9,0.1,2.8,0.1
				c7.4,0,15.3,3.7,15.3,12c0,0.1,0,0.1,0,0.2c0,1.5-0.2,2.8-0.7,4.1c-0.1,0.4-0.3,0.8-0.5,1.2c-0.3,0.7-0.7,1.3-1.1,1.9
				c-0.1,0.1-0.1,0.2-0.2,0.2c-0.1,0.1-0.1,0.1-0.2,0.2c-0.6,0.7-1.3,1.4-2,2c-0.2,0.2-0.5,0.4-0.8,0.6c-0.4,0.2-0.7,0.5-1.1,0.6
				c-0.3,0.2-0.6,0.3-0.9,0.4c-0.1,0.1-0.2,0.1-0.3,0.1c-0.3,0.2-0.6,0.3-1,0.4c-0.1,0-0.2,0.1-0.3,0.1c-0.3,0.1-0.7,0.2-1,0.3
				c-0.1,0-0.2,0.1-0.4,0.1c-0.4,0.1-0.8,0.2-1.2,0.2c0,0-0.1,0-0.1,0c-0.5,0.1-0.9,0.2-1.4,0.2c-0.5,0-1,0.1-1.5,0.1c0,0,0,0,0,0
				c-0.1,0-0.3,0-0.4,0c-8.5,0-15.7-5.1-15.7-12.9H6.9c0,9.3,4.3,16.7,11.2,21.3c0.3,0.2,0.5,0.4,0.8,0.5c-2.6,1.8-4.9,4.1-6.7,6.6
				c-1.2,1.7-2.2,3.4-3,5.4c6.6,9.8,15,16.7,24.4,19.3c2.8,0.8,5.7,1.2,8.6,1.2c3,0,5.8-0.4,8.7-1.2c6.4-1.8,12.4-5.6,17.7-11
				C67.4,117.2,63.3,110.2,56.8,105.9z M21.6,42.7c0-10.5,7.1-16.9,15.7-16.9h0.4c0.1,0,0.3,0,0.4,0c0.3,0,0.5,0,0.8,0.1
				c0.2,0,0.5,0.1,0.8,0.1c0.2,0,0.4,0.1,0.5,0.1c0.2,0,0.4,0.1,0.5,0.1c0.2,0,0.5,0.1,0.7,0.2c0.2,0,0.4,0.1,0.7,0.2
				c0.3,0.1,0.6,0.2,0.9,0.3c0.2,0.1,0.4,0.1,0.5,0.2c0.2,0.1,0.5,0.2,0.7,0.3c0.4,0.2,0.9,0.5,1.3,0.7c0.2,0.1,0.4,0.3,0.6,0.4
				c0.3,0.2,0.7,0.5,1,0.8c0.2,0.2,0.4,0.3,0.5,0.5c0.6,0.5,1.1,1.1,1.6,1.7c0.2,0.2,0.3,0.4,0.5,0.6c1.2,1.8,2.2,3.8,2.7,6.2
				c0,0.2,0.1,0.5,0.1,0.7c0,0.1,0,0.2,0,0.3c0.1,0.4,0.1,0.8,0.2,1.2c0.1,0.7,0.1,1.4,0.1,2.1c0,1.2-0.1,2.4-0.3,3.5
				c0,0.3-0.1,0.6-0.2,0.8c0,0,0,0.1,0,0.2c-0.1,0.5-0.2,1-0.4,1.4c-0.1,0.3-0.2,0.5-0.3,0.8c-0.1,0.2-0.2,0.5-0.3,0.7
				c-0.1,0.2-0.2,0.5-0.3,0.7c-0.1,0.2-0.2,0.5-0.4,0.7c-0.1,0.2-0.2,0.4-0.4,0.7c-0.1,0.2-0.3,0.4-0.4,0.6
				c-0.1,0.2-0.3,0.4-0.4,0.6c-0.7,1-1.6,1.9-2.5,2.6c-0.2,0.2-0.4,0.3-0.6,0.4c-0.6,0.4-1.2,0.8-1.8,1.1c-1.5,0.8-3.1,1.3-4.8,1.5
				c-0.2,0-0.5,0.1-0.7,0.1c-0.2,0-0.5,0.1-0.8,0.1c0,0,0,0,0,0c-0.3,0-0.6,0-0.9,0C28.6,59.4,21.6,53.2,21.6,42.7z M22,125.8
				c2.2-7.8,8.7-11.7,16.8-11.7c0.1,0,0.3,0,0.4,0c8.3,0.1,14.2,4,15.2,11.6H22z"/>
		</g>
	</g>
	<path class="st35" d="M75.7,0H0.1v77.3v19.6c0,0,0,0-0.1,0v75.7h0.1h75.7h0.1v-60.2L75.7,0L75.7,0z M72,168.8H3.9V79.1V3.8H72
		v106.8V168.8z"/>
</g>
</svg>
